<svg width="117" height="117" viewBox="0 0 117 117" fill="none" xmlns="http://www.w3.org/2000/svg">
<path d="M106.372 73.2923L108.9 87.6004L95.2454 92.5616L85.7593 78.1941L81.7528 75.8826L84.6286 86.6136L78.0113 88.3861L73.3608 71.0355L65.172 66.3096C64.2241 67.1205 63.1254 67.7646 61.9262 68.1895V77.6391L74.6285 90.3391L69.7815 95.1861L61.9262 87.3286V91.954L69.601 107.306L58.4999 117L47.3988 107.306L55.0737 91.954V87.3286L47.2184 95.1861L42.3714 90.3391L55.0737 77.6391V68.1895C53.8745 67.7646 52.7758 67.1205 51.8279 66.3096L43.6391 71.0355L38.9885 88.3861L32.3713 86.6136L35.247 75.8826L31.2406 78.1941L21.7544 92.5616L8.09961 87.6004L10.6282 73.2923L27.8143 72.2599L31.8208 69.9483L21.0874 67.0725L22.8622 60.453L40.2128 65.1013L48.397 60.3776C48.2828 59.7677 48.2211 59.1418 48.2211 58.5C48.2211 57.8581 48.2828 57.2323 48.397 56.6224L40.2128 51.8987L22.8622 56.547L21.0874 49.9275L31.8208 47.0517L27.8143 44.7401L10.6282 43.7077L8.09961 29.4019L21.7544 24.4384L31.2406 38.8058L35.247 41.1174L32.3713 30.3864L38.9885 28.6139L43.6391 45.9644L51.8279 50.6904C52.7758 49.8795 53.8745 49.2354 55.0737 48.8105V39.3609L42.3714 26.6609L47.2184 21.8139L55.0737 29.6714V25.046L47.3988 9.69404L58.4999 0L69.601 9.69404L61.9262 25.046V29.6714L69.7815 21.8139L74.6285 26.6609L61.9262 39.3609V48.8105C63.1254 49.2354 64.2241 49.8795 65.172 50.6904L73.3608 45.9644L78.0113 28.6139L84.6286 30.3864L81.7528 41.1174L85.7593 38.8058L95.2454 24.4384L108.9 29.4019L106.372 43.7077L89.1855 44.7401L85.1791 47.0517L95.9124 49.9275L94.1376 56.547L76.787 51.8987L68.6028 56.6224C68.717 57.2323 68.7787 57.8581 68.7787 58.5C68.7787 59.1418 68.717 59.7677 68.6028 60.3776L76.787 65.1013L94.1376 60.453L95.9124 67.0725L85.1791 69.9483L89.1855 72.2599L106.372 73.2923Z" fill="#00427D"/>
<path d="M106.372 73.2923L108.9 87.6004L95.2455 92.5616L85.7593 78.1941L81.7529 75.8826L84.6287 86.6136L78.0114 88.3861L73.3608 71.0355L65.1721 66.3096C64.2241 67.1205 63.1255 67.7646 61.9263 68.1895V77.6391L74.6286 90.3391L69.7815 95.1861L61.9263 87.3286V91.954L69.6011 107.306L58.5 117V0L69.6011 9.69404L61.9263 25.046V29.6714L69.7815 21.8139L74.6286 26.6609L61.9263 39.3609V48.8105C63.1255 49.2354 64.2241 49.8795 65.1721 50.6904L73.3608 45.9644L78.0114 28.6139L84.6287 30.3864L81.7529 41.1174L85.7593 38.8058L95.2455 24.4384L108.9 29.4019L106.372 43.7077L89.1856 44.7401L85.1792 47.0517L95.9125 49.9275L94.1377 56.547L76.7871 51.8987L68.6029 56.6224C68.7171 57.2323 68.7788 57.8581 68.7788 58.5C68.7788 59.1418 68.7171 59.7677 68.6029 60.3776L76.7871 65.1013L94.1377 60.453L95.9125 67.0725L85.1792 69.9483L89.1856 72.2599L106.372 73.2923Z" fill="#00427D"/>
</svg>
