<svg width="30" height="30" viewBox="0 0 30 30" fill="none" xmlns="http://www.w3.org/2000/svg">
<g clip-path="url(#clip0_70_4964)">
<path d="M30.0002 15.0002C30.0002 6.71597 23.2845 0.000244141 15.0002 0.000244141C6.71597 0.000244141 0.000244141 6.71597 0.000244141 15.0002C0.000244141 23.2845 6.71597 30.0002 15.0002 30.0002C23.2845 30.0002 30.0002 23.2845 30.0002 15.0002Z" fill="url(#paint0_linear_70_4964)"/>
<path opacity="0.1" d="M26.2895 5.13164C24.1027 9.14611 21.0099 13.2869 17.1455 17.1514C13.281 21.0158 9.14021 24.1027 5.13166 26.2895C4.88034 26.0711 4.63626 25.8435 4.39942 25.6066C2.96782 24.2228 1.82605 22.5679 1.04067 20.7382C0.255302 18.9086 -0.157951 16.9409 -0.174988 14.9499C-0.192025 12.9589 0.187495 10.9844 0.941441 9.14159C1.69539 7.29878 2.80867 5.62451 4.21638 4.21641C5.62409 2.80831 7.29805 1.69456 9.14065 0.940098C10.9832 0.185637 12.9576 -0.194434 14.9486 -0.177953C16.9396 -0.161472 18.9074 0.251232 20.7373 1.03609C22.5672 1.82095 24.2225 2.96227 25.6067 4.39348C25.8435 4.63032 26.0711 4.87637 26.2895 5.13164Z" fill="white"/>
<path d="M18.5528 7.10547H11.4476C10.296 7.10547 9.19154 7.56294 8.37724 8.37724C7.56294 9.19154 7.10547 10.296 7.10547 11.4476V18.5528C7.10547 19.7044 7.56294 20.8089 8.37724 21.6232C9.19154 22.4375 10.296 22.8949 11.4476 22.8949H18.5528C19.7044 22.8949 20.8089 22.4375 21.6232 21.6232C22.4375 20.8089 22.8949 19.7044 22.8949 18.5528V11.4476C22.8949 10.296 22.4375 9.19154 21.6232 8.37724C20.8089 7.56294 19.7044 7.10547 18.5528 7.10547ZM21.5134 17.9292C21.5134 18.8797 21.1357 19.7914 20.4636 20.4636C19.7914 21.1357 18.8797 21.5134 17.9292 21.5134H12.0713C11.1207 21.5134 10.209 21.1357 9.53684 20.4636C8.86467 19.7914 8.48705 18.8797 8.48705 17.9292V12.0713C8.48705 11.1207 8.86467 10.209 9.53684 9.53684C10.209 8.86467 11.1207 8.48705 12.0713 8.48705H17.9292C18.8797 8.48705 19.7914 8.86467 20.4636 9.53684C21.1357 10.209 21.5134 11.1207 21.5134 12.0713V17.9292Z" fill="white"/>
<path d="M17.8796 12.15L17.8421 12.1125L17.8105 12.0809C17.0643 11.3373 16.0536 10.9199 15 10.9204C14.468 10.924 13.9419 11.0324 13.4518 11.2394C12.9617 11.4464 12.5171 11.748 12.1436 12.1268C11.7701 12.5057 11.4748 12.9544 11.2748 13.4474C11.0747 13.9404 10.9737 14.468 10.9776 15C10.9768 16.0797 11.4024 17.1161 12.1619 17.8836C12.5338 18.2601 12.9771 18.5587 13.4657 18.762C13.9544 18.9653 14.4786 19.0693 15.0079 19.0678C15.8018 19.0511 16.5737 18.8038 17.2294 18.356C17.8852 17.9082 18.3965 17.2793 18.7009 16.5459C19.0054 15.8125 19.0898 15.0064 18.944 14.2258C18.7981 13.4453 18.4283 12.724 17.8796 12.15ZM15 17.6763C14.4692 17.6838 13.9481 17.5332 13.5031 17.2436C13.058 16.9541 12.7092 16.5388 12.5008 16.0504C12.2925 15.5621 12.2341 15.0229 12.3331 14.5013C12.4321 13.9797 12.684 13.4993 13.0568 13.1212C13.4295 12.7432 13.9063 12.4845 14.4264 12.3782C14.9466 12.2719 15.4866 12.3226 15.9778 12.524C16.4691 12.7255 16.8893 13.0684 17.1851 13.5093C17.4808 13.9502 17.6388 14.4691 17.6388 15C17.6414 15.349 17.5752 15.6952 17.444 16.0186C17.3128 16.342 17.1191 16.6364 16.874 16.885C16.629 17.1335 16.3373 17.3314 16.0158 17.4671C15.6942 17.6029 15.3491 17.674 15 17.6763Z" fill="white"/>
<path d="M20.2165 10.733C20.2175 10.8596 20.1935 10.9852 20.146 11.1026C20.0984 11.22 20.0282 11.3268 19.9393 11.417C19.8503 11.5072 19.7445 11.579 19.6278 11.6283C19.5111 11.6775 19.3859 11.7033 19.2592 11.704C19.1336 11.704 19.0093 11.679 18.8934 11.6305C18.7776 11.5821 18.6725 11.5111 18.5842 11.4218C18.4505 11.2861 18.3596 11.1142 18.3226 10.9273C18.2857 10.7405 18.3045 10.5469 18.3766 10.3706C18.4486 10.1942 18.5709 10.043 18.7281 9.93547C18.8854 9.82798 19.0707 9.76901 19.2612 9.76587C19.4841 9.76583 19.7 9.84406 19.8711 9.98692L19.8908 10.0067C19.9226 10.0326 19.9517 10.0617 19.9776 10.0935L19.9994 10.1172C20.1406 10.2912 20.2173 10.5088 20.2165 10.733Z" fill="white"/>
</g>
<defs>
<linearGradient id="paint0_linear_70_4964" x1="4.39367" y1="4.39367" x2="25.6068" y2="25.6068" gradientUnits="userSpaceOnUse">
<stop stop-color="#FAE100"/>
<stop offset="0.15" stop-color="#FCB720"/>
<stop offset="0.3" stop-color="#FF7950"/>
<stop offset="0.5" stop-color="#FF1C74"/>
<stop offset="1" stop-color="#6C1CD1"/>
</linearGradient>
<clipPath id="clip0_70_4964">
<rect width="30" height="30" fill="white"/>
</clipPath>
</defs>
</svg>
