<svg width="38" height="38" viewBox="0 0 38 38" fill="none" xmlns="http://www.w3.org/2000/svg">
<g clip-path="url(#clip0_70_5665)">
<path d="M19 38C29.4934 38 38 29.4934 38 19C38 8.50659 29.4934 0 19 0C8.50659 0 0 8.50659 0 19C0 29.4934 8.50659 38 19 38Z" fill="#E9E9E9"/>
<path d="M14.5277 16.4514C14.1405 16.8412 14.0933 17.4545 14.4163 17.8993C15.1763 18.9443 16.0175 19.9277 16.9321 20.8411C17.9529 21.8651 19.0621 22.7967 20.2473 23.6255C20.6922 23.9374 21.2976 23.885 21.6821 23.5011L23.7918 21.3914C24.3723 20.8109 25.3144 20.8109 25.8949 21.3914L29.577 25.0735C30.1575 25.6539 30.1575 26.5961 29.577 27.1766L28.5811 28.1725C27.1299 29.6387 25.0183 30.2402 23.0122 29.758C21.1509 29.2647 19.3813 28.4745 17.7708 27.4191C16.2881 26.4795 14.9129 25.3815 13.6694 24.1432C12.5261 23.0058 11.4988 21.7571 10.6032 20.4153C9.61779 18.9634 8.83753 17.3825 8.28386 15.7177C7.60312 13.5955 8.16726 11.271 9.74493 9.69661L10.9046 8.51727C11.4851 7.9368 12.4272 7.9368 13.0077 8.51727L16.6898 12.1993C17.2703 12.7798 17.2703 13.7219 16.6898 14.3025L14.5277 16.4514Z" fill="#212121"/>
</g>
<defs>
<clipPath id="clip0_70_5665">
<rect width="38" height="38" fill="white"/>
</clipPath>
</defs>
</svg>
